<svg id="eBukxSGKd9T1" xmlns="http://www.w3.org/2000/svg" xmlns:xlink="http://www.w3.org/1999/xlink" viewBox="0 0 265 265" shape-rendering="geometricPrecision" text-rendering="geometricPrecision"><rect width="40" height="41.107266" rx="0" ry="0" transform="translate(112.5 61.963669)" fill="#2fad84" stroke-width="0"/><rect width="40" height="41.107266" rx="0" ry="0" transform="translate(163.382353 61.963669)" fill="#2fad84" stroke-width="0"/><rect width="40" height="41.107266" rx="0" ry="0" transform="translate(163.382353 112.621108)" fill="#2fad84" stroke-width="0"/><rect width="40" height="41.107266" rx="0" ry="0" transform="translate(112.5 112.621108)" fill="#2fad84" stroke-width="0"/><rect width="40" height="41.107266" rx="0" ry="0" transform="translate(61.617647 112.621108)" fill="#2fad84" stroke-width="0"/><rect width="40" height="41.107266" rx="0" ry="0" transform="translate(61.617647 164.108997)" fill="#2fad84" stroke-width="0"/><rect width="40" height="41.107266" rx="0" ry="0" transform="translate(112.5 164.108997)" fill="#2fad84" stroke-width="0"/><rect width="40" height="41.107266" rx="0" ry="0" transform="translate(163.382353 164.108997)" fill="#2fad84" stroke-width="0"/><rect width="40" height="41.107266" rx="0" ry="0" transform="translate(61.617647 61.963669)" fill="#2fad84" stroke-width="0"/><rect width="40" height="41.107266" rx="0" ry="0" transform="translate(10.735294 10.787197)" fill="#dfdfdf" stroke-width="0"/><rect width="40" height="41.107266" rx="0" ry="0" transform="translate(10.735294 61.963669)" fill="#dfdfdf" stroke-width="0"/><rect width="40" height="41.107266" rx="0" ry="0" transform="translate(10.735294 112.621108)" fill="#dfdfdf" stroke-width="0"/><rect width="40" height="41.107266" rx="0" ry="0" transform="translate(10.735294 164.108997)" fill="#dfdfdf" stroke-width="0"/><rect width="40" height="41.107266" rx="0" ry="0" transform="translate(10.735294 213.105537)" fill="#dfdfdf" stroke-width="0"/><rect width="40" height="41.107266" rx="0" ry="0" transform="translate(61.617647 213.105537)" fill="#dfdfdf" stroke-width="0"/><rect width="40" height="41.107266" rx="0" ry="0" transform="translate(112.5 213.105537)" fill="#dfdfdf" stroke-width="0"/><rect width="40" height="41.107266" rx="0" ry="0" transform="translate(163.382353 213.105537)" fill="#dfdfdf" stroke-width="0"/><rect width="40" height="41.107266" rx="0" ry="0" transform="translate(214.264706 213.105537)" fill="#dfdfdf" stroke-width="0"/><rect width="40" height="41.107266" rx="0" ry="0" transform="translate(214.264706 164.108997)" fill="#dfdfdf" stroke-width="0"/><rect width="40" height="41.107266" rx="0" ry="0" transform="translate(214.264706 112.621108)" fill="#dfdfdf" stroke-width="0"/><rect width="40" height="41.107266" rx="0" ry="0" transform="translate(214.264706 61.963669)" fill="#dfdfdf" stroke-width="0"/><rect width="40" height="41.107266" rx="0" ry="0" transform="translate(61.617647 10.787197)" fill="#dfdfdf" stroke-width="0"/><rect width="40" height="41.107266" rx="0" ry="0" transform="translate(112.5 10.787197)" fill="#dfdfdf" stroke-width="0"/><rect width="40" height="41.107266" rx="0" ry="0" transform="translate(163.382353 10.787197)" fill="#dfdfdf" stroke-width="0"/><rect width="40" height="41.107266" rx="0" ry="0" transform="translate(214.264706 10.787197)" fill="#dfdfdf" stroke-width="0"/></svg>
