<svg id="eK58hWp0FdI1" xmlns="http://www.w3.org/2000/svg" xmlns:xlink="http://www.w3.org/1999/xlink" viewBox="0 0 400 400" shape-rendering="geometricPrecision" text-rendering="geometricPrecision"><path d="M122.214533,389.757785c13.84083-32.664359,39.989558-109.616546,42.076124-159.446366.567011-13.540947-.075102-23.680415-.075102-30.502305c0-1.639859-20.334261,5.132762-20.334261,5.132762s-33.766228,6.58136-40.655831-3.687555-7.419875-28.500762,10.36559-38.500762q17.785465-10-3.850077-16.584943-45.005978-12.091415-42.646998-31.689089c2.35898-19.597674,25.793181-29.608175,40.277721-25.469735s-5.235669-23.071979-11.970935-34.520174C80.981497,29.980626,120.830524,13.35303,145.078982,24.91768c27.774048,13.246085,37.61487,57.45553,39.306709,26.438467s35.084265-41.068175,44.777584-41.448305s47.591816,3.913821,35.985411,47.401509c-4.05234,15.18359-5.911276,15.866917,5.649629,9.663504s29.272018-10.546302,42.869641-5.690009s26.223987,28.166505,4.491709,43.116045c-31.363372,21.574728-50.06043,16.806178-34.118769,19.73813c41.662956,7.662551,53.391917,20.958252,52.447033,40.886127-.916924,19.3382-25.941544,53.010979-54.420846,34.682715s-49.45977-3.188797-51.146775,1.045082-2.81268,18.634001,12.657058,69.965404s43.596533,95.279521,60.121026,108.639749" transform="translate(.000002 0.196243)" fill="none" stroke="#2d3a2d" stroke-width="20"/></svg>
