<svg id="eULa7IsvPy81" xmlns="http://www.w3.org/2000/svg" xmlns:xlink="http://www.w3.org/1999/xlink" viewBox="0 0 305 305" shape-rendering="geometricPrecision" text-rendering="geometricPrecision"><path d="M0,70c20,0,40-30,60-30s40,30,60,30s40-30,60-30s40,30,60,30s40-30,60-30" transform="translate(2.5 0)" fill="none" stroke="#3f5787" stroke-width="15" stroke-linecap="round" stroke-linejoin="round"/><path d="M0,70c20,0,40-30,60-30s40,30,60,30s40-30,60-30s40,30,60,30s40-30,60-30" transform="translate(2.5 180)" fill="none" stroke="#3f5787" stroke-width="15" stroke-linecap="round" stroke-linejoin="round"/><path d="M0,70c20,0,40-30,60-30s40,30,60,30s40-30,60-30s40,30,60,30s40-30,60-30" transform="translate(2.5 90)" fill="none" stroke="#3f5787" stroke-width="15" stroke-linecap="round" stroke-linejoin="round"/></svg>
